<?xml version="1.0" encoding="utf-8" standalone="no"?>
<!DOCTYPE svg PUBLIC "-//W3C//DTD SVG 1.1//EN"
  "http://www.w3.org/Graphics/SVG/1.1/DTD/svg11.dtd">
<!-- Created with matplotlib (https://matplotlib.org/) -->
<svg height="288pt" version="1.1" viewBox="0 0 432 288" width="432pt" xmlns="http://www.w3.org/2000/svg" xmlns:xlink="http://www.w3.org/1999/xlink">
 <metadata>
  <rdf:RDF xmlns:cc="http://creativecommons.org/ns#" xmlns:dc="http://purl.org/dc/elements/1.1/" xmlns:rdf="http://www.w3.org/1999/02/22-rdf-syntax-ns#">
   <cc:Work>
    <dc:type rdf:resource="http://purl.org/dc/dcmitype/StillImage"/>
    <dc:date>2021-01-22T16:50:00.875194</dc:date>
    <dc:format>image/svg+xml</dc:format>
    <dc:creator>
     <cc:Agent>
      <dc:title>Matplotlib v3.3.2, https://matplotlib.org/</dc:title>
     </cc:Agent>
    </dc:creator>
   </cc:Work>
  </rdf:RDF>
 </metadata>
 <defs>
  <style type="text/css">*{stroke-linecap:butt;stroke-linejoin:round;}</style>
 </defs>
 <g id="figure_1">
  <g id="patch_1">
   <path d="M 0 288 
L 432 288 
L 432 0 
L 0 0 
z
" style="fill:none;"/>
  </g>
  <g id="axes_1">
   <g id="patch_2">
    <path d="M 66.05 246.2 
L 421.2 246.2 
L 421.2 24.8 
L 66.05 24.8 
z
" style="fill:#ffffff;"/>
   </g>
   <g id="PathCollection_1">
    <defs>
     <path d="M 0 3 
C 0.795609 3 1.55874 2.683901 2.12132 2.12132 
C 2.683901 1.55874 3 0.795609 3 0 
C 3 -0.795609 2.683901 -1.55874 2.12132 -2.12132 
C 1.55874 -2.683901 0.795609 -3 0 -3 
C -0.795609 -3 -1.55874 -2.683901 -2.12132 -2.12132 
C -2.683901 -1.55874 -3 -0.795609 -3 0 
C -3 0.795609 -2.683901 1.55874 -2.12132 2.12132 
C -1.55874 2.683901 -0.795609 3 0 3 
z
" id="md360ebad85" style="stroke:#ffffff;stroke-width:0.48;"/>
    </defs>
    <g clip-path="url(#p44e08d1373)">
     <use style="fill:#1f77b4;stroke:#ffffff;stroke-width:0.48;" x="196.578572" xlink:href="#md360ebad85" y="160.094624"/>
     <use style="fill:#1f77b4;stroke:#ffffff;stroke-width:0.48;" x="340.556918" xlink:href="#md360ebad85" y="88.089122"/>
     <use style="fill:#1f77b4;stroke:#ffffff;stroke-width:0.48;" x="188.16356" xlink:href="#md360ebad85" y="182.591263"/>
     <use style="fill:#1f77b4;stroke:#ffffff;stroke-width:0.48;" x="184.184659" xlink:href="#md360ebad85" y="204.225769"/>
     <use style="fill:#1f77b4;stroke:#ffffff;stroke-width:0.48;" x="161.207132" xlink:href="#md360ebad85" y="203.64002"/>
     <use style="fill:#1f77b4;stroke:#ffffff;stroke-width:0.48;" x="197.312398" xlink:href="#md360ebad85" y="208.737503"/>
     <use style="fill:#1f77b4;stroke:#ffffff;stroke-width:0.48;" x="265.154145" xlink:href="#md360ebad85" y="184.693404"/>
     <use style="fill:#1f77b4;stroke:#ffffff;stroke-width:0.48;" x="160.039144" xlink:href="#md360ebad85" y="208.444264"/>
     <use style="fill:#1f77b4;stroke:#ffffff;stroke-width:0.48;" x="163.031197" xlink:href="#md360ebad85" y="206.910865"/>
     <use style="fill:#1f77b4;stroke:#ffffff;stroke-width:0.48;" x="163.155534" xlink:href="#md360ebad85" y="210.164959"/>
     <use style="fill:#1f77b4;stroke:#ffffff;stroke-width:0.48;" x="234.830829" xlink:href="#md360ebad85" y="173.880754"/>
     <use style="fill:#1f77b4;stroke:#ffffff;stroke-width:0.48;" x="152.004232" xlink:href="#md360ebad85" y="212.379267"/>
     <use style="fill:#1f77b4;stroke:#ffffff;stroke-width:0.48;" x="208.572818" xlink:href="#md360ebad85" y="169.284996"/>
     <use style="fill:#1f77b4;stroke:#ffffff;stroke-width:0.48;" x="148.54755" xlink:href="#md360ebad85" y="202.386208"/>
     <use style="fill:#1f77b4;stroke:#ffffff;stroke-width:0.48;" x="322.630788" xlink:href="#md360ebad85" y="104.23765"/>
     <use style="fill:#1f77b4;stroke:#ffffff;stroke-width:0.48;" x="246.685889" xlink:href="#md360ebad85" y="197.621914"/>
     <use style="fill:#1f77b4;stroke:#ffffff;stroke-width:0.48;" x="235.825509" xlink:href="#md360ebad85" y="140.239869"/>
     <use style="fill:#1f77b4;stroke:#ffffff;stroke-width:0.48;" x="160.668397" xlink:href="#md360ebad85" y="199.515292"/>
     <use style="fill:#1f77b4;stroke:#ffffff;stroke-width:0.48;" x="184.074281" xlink:href="#md360ebad85" y="208.654509"/>
     <use style="fill:#1f77b4;stroke:#ffffff;stroke-width:0.48;" x="116.64274" xlink:href="#md360ebad85" y="206.242921"/>
     <use style="fill:#1f77b4;stroke:#ffffff;stroke-width:0.48;" x="147.815675" xlink:href="#md360ebad85" y="197.99925"/>
     <use style="fill:#1f77b4;stroke:#ffffff;stroke-width:0.48;" x="172.819898" xlink:href="#md360ebad85" y="202.307509"/>
     <use style="fill:#1f77b4;stroke:#ffffff;stroke-width:0.48;" x="216.760043" xlink:href="#md360ebad85" y="211.88042"/>
     <use style="fill:#1f77b4;stroke:#ffffff;stroke-width:0.48;" x="178.158057" xlink:href="#md360ebad85" y="207.626191"/>
     <use style="fill:#1f77b4;stroke:#ffffff;stroke-width:0.48;" x="161.098639" xlink:href="#md360ebad85" y="211.162783"/>
     <use style="fill:#1f77b4;stroke:#ffffff;stroke-width:0.48;" x="155.262061" xlink:href="#md360ebad85" y="212.859904"/>
     <use style="fill:#1f77b4;stroke:#ffffff;stroke-width:0.48;" x="199.094866" xlink:href="#md360ebad85" y="212.492434"/>
     <use style="fill:#1f77b4;stroke:#ffffff;stroke-width:0.48;" x="157.066238" xlink:href="#md360ebad85" y="209.645963"/>
     <use style="fill:#1f77b4;stroke:#ffffff;stroke-width:0.48;" x="194.797472" xlink:href="#md360ebad85" y="186.420985"/>
     <use style="fill:#1f77b4;stroke:#ffffff;stroke-width:0.48;" x="233.229786" xlink:href="#md360ebad85" y="205.242632"/>
     <use style="fill:#1f77b4;stroke:#ffffff;stroke-width:0.48;" x="142.56787" xlink:href="#md360ebad85" y="202.354794"/>
     <use style="fill:#1f77b4;stroke:#ffffff;stroke-width:0.48;" x="162.088849" xlink:href="#md360ebad85" y="211.687951"/>
     <use style="fill:#1f77b4;stroke:#ffffff;stroke-width:0.48;" x="201.087851" xlink:href="#md360ebad85" y="189.353024"/>
     <use style="fill:#1f77b4;stroke:#ffffff;stroke-width:0.48;" x="240.684015" xlink:href="#md360ebad85" y="192.199103"/>
     <use style="fill:#1f77b4;stroke:#ffffff;stroke-width:0.48;" x="191.730832" xlink:href="#md360ebad85" y="200.702359"/>
     <use style="fill:#1f77b4;stroke:#ffffff;stroke-width:0.48;" x="163.803913" xlink:href="#md360ebad85" y="212.723525"/>
     <use style="fill:#1f77b4;stroke:#ffffff;stroke-width:0.48;" x="147.797266" xlink:href="#md360ebad85" y="213.067991"/>
     <use style="fill:#1f77b4;stroke:#ffffff;stroke-width:0.48;" x="160.489935" xlink:href="#md360ebad85" y="185.983045"/>
     <use style="fill:#1f77b4;stroke:#ffffff;stroke-width:0.48;" x="219.571504" xlink:href="#md360ebad85" y="210.055903"/>
     <use style="fill:#1f77b4;stroke:#ffffff;stroke-width:0.48;" x="267.773061" xlink:href="#md360ebad85" y="161.490528"/>
     <use style="fill:#1f77b4;stroke:#ffffff;stroke-width:0.48;" x="316.248678" xlink:href="#md360ebad85" y="195.440386"/>
     <use style="fill:#1f77b4;stroke:#ffffff;stroke-width:0.48;" x="160.381406" xlink:href="#md360ebad85" y="210.70136"/>
     <use style="fill:#1f77b4;stroke:#ffffff;stroke-width:0.48;" x="241.589869" xlink:href="#md360ebad85" y="150.978666"/>
     <use style="fill:#1f77b4;stroke:#ffffff;stroke-width:0.48;" x="178.55741" xlink:href="#md360ebad85" y="185.391463"/>
     <use style="fill:#1f77b4;stroke:#ffffff;stroke-width:0.48;" x="151.728227" xlink:href="#md360ebad85" y="200.291275"/>
     <use style="fill:#1f77b4;stroke:#ffffff;stroke-width:0.48;" x="134.167618" xlink:href="#md360ebad85" y="206.825046"/>
     <use style="fill:#1f77b4;stroke:#ffffff;stroke-width:0.48;" x="194.548209" xlink:href="#md360ebad85" y="190.699573"/>
     <use style="fill:#1f77b4;stroke:#ffffff;stroke-width:0.48;" x="308.169021" xlink:href="#md360ebad85" y="198.731435"/>
     <use style="fill:#1f77b4;stroke:#ffffff;stroke-width:0.48;" x="213.874954" xlink:href="#md360ebad85" y="203.606399"/>
     <use style="fill:#1f77b4;stroke:#ffffff;stroke-width:0.48;" x="154.452858" xlink:href="#md360ebad85" y="185.450145"/>
     <use style="fill:#1f77b4;stroke:#ffffff;stroke-width:0.48;" x="262.867328" xlink:href="#md360ebad85" y="188.40281"/>
     <use style="fill:#1f77b4;stroke:#ffffff;stroke-width:0.48;" x="174.367544" xlink:href="#md360ebad85" y="207.770915"/>
     <use style="fill:#1f77b4;stroke:#ffffff;stroke-width:0.48;" x="220.517336" xlink:href="#md360ebad85" y="185.273271"/>
     <use style="fill:#1f77b4;stroke:#ffffff;stroke-width:0.48;" x="234.287912" xlink:href="#md360ebad85" y="207.267783"/>
     <use style="fill:#1f77b4;stroke:#ffffff;stroke-width:0.48;" x="162.843607" xlink:href="#md360ebad85" y="206.242738"/>
     <use style="fill:#1f77b4;stroke:#ffffff;stroke-width:0.48;" x="228.854763" xlink:href="#md360ebad85" y="126.862815"/>
     <use style="fill:#1f77b4;stroke:#ffffff;stroke-width:0.48;" x="155.753369" xlink:href="#md360ebad85" y="210.235353"/>
     <use style="fill:#1f77b4;stroke:#ffffff;stroke-width:0.48;" x="223.779743" xlink:href="#md360ebad85" y="199.495621"/>
     <use style="fill:#1f77b4;stroke:#ffffff;stroke-width:0.48;" x="157.55505" xlink:href="#md360ebad85" y="200.189222"/>
     <use style="fill:#1f77b4;stroke:#ffffff;stroke-width:0.48;" x="211.4677" xlink:href="#md360ebad85" y="183.366664"/>
     <use style="fill:#1f77b4;stroke:#ffffff;stroke-width:0.48;" x="168.761998" xlink:href="#md360ebad85" y="204.378975"/>
     <use style="fill:#1f77b4;stroke:#ffffff;stroke-width:0.48;" x="254.531873" xlink:href="#md360ebad85" y="116.881658"/>
     <use style="fill:#1f77b4;stroke:#ffffff;stroke-width:0.48;" x="256.373586" xlink:href="#md360ebad85" y="181.121109"/>
     <use style="fill:#1f77b4;stroke:#ffffff;stroke-width:0.48;" x="208.970137" xlink:href="#md360ebad85" y="151.939461"/>
     <use style="fill:#1f77b4;stroke:#ffffff;stroke-width:0.48;" x="216.214554" xlink:href="#md360ebad85" y="142.716471"/>
     <use style="fill:#1f77b4;stroke:#ffffff;stroke-width:0.48;" x="147.906721" xlink:href="#md360ebad85" y="185.549783"/>
     <use style="fill:#1f77b4;stroke:#ffffff;stroke-width:0.48;" x="159.512581" xlink:href="#md360ebad85" y="131.805324"/>
     <use style="fill:#1f77b4;stroke:#ffffff;stroke-width:0.48;" x="232.629408" xlink:href="#md360ebad85" y="176.836684"/>
     <use style="fill:#1f77b4;stroke:#ffffff;stroke-width:0.48;" x="247.228015" xlink:href="#md360ebad85" y="187.754457"/>
     <use style="fill:#1f77b4;stroke:#ffffff;stroke-width:0.48;" x="138.28723" xlink:href="#md360ebad85" y="211.406948"/>
     <use style="fill:#1f77b4;stroke:#ffffff;stroke-width:0.48;" x="365.183977" xlink:href="#md360ebad85" y="147.222128"/>
     <use style="fill:#1f77b4;stroke:#ffffff;stroke-width:0.48;" x="120.977321" xlink:href="#md360ebad85" y="202.449549"/>
     <use style="fill:#1f77b4;stroke:#ffffff;stroke-width:0.48;" x="143.234598" xlink:href="#md360ebad85" y="210.585923"/>
     <use style="fill:#1f77b4;stroke:#ffffff;stroke-width:0.48;" x="157.762552" xlink:href="#md360ebad85" y="207.283455"/>
     <use style="fill:#1f77b4;stroke:#ffffff;stroke-width:0.48;" x="219.281444" xlink:href="#md360ebad85" y="175.333493"/>
     <use style="fill:#1f77b4;stroke:#ffffff;stroke-width:0.48;" x="149.637287" xlink:href="#md360ebad85" y="199.845011"/>
     <use style="fill:#1f77b4;stroke:#ffffff;stroke-width:0.48;" x="166.249582" xlink:href="#md360ebad85" y="200.128893"/>
     <use style="fill:#1f77b4;stroke:#ffffff;stroke-width:0.48;" x="166.375405" xlink:href="#md360ebad85" y="205.077256"/>
     <use style="fill:#1f77b4;stroke:#ffffff;stroke-width:0.48;" x="179.790576" xlink:href="#md360ebad85" y="201.977663"/>
     <use style="fill:#1f77b4;stroke:#ffffff;stroke-width:0.48;" x="223.14723" xlink:href="#md360ebad85" y="155.223296"/>
     <use style="fill:#1f77b4;stroke:#ffffff;stroke-width:0.48;" x="321.079323" xlink:href="#md360ebad85" y="171.191191"/>
     <use style="fill:#1f77b4;stroke:#ffffff;stroke-width:0.48;" x="190.09656" xlink:href="#md360ebad85" y="181.469123"/>
     <use style="fill:#1f77b4;stroke:#ffffff;stroke-width:0.48;" x="139.773051" xlink:href="#md360ebad85" y="205.40215"/>
     <use style="fill:#1f77b4;stroke:#ffffff;stroke-width:0.48;" x="159.928608" xlink:href="#md360ebad85" y="207.25919"/>
     <use style="fill:#1f77b4;stroke:#ffffff;stroke-width:0.48;" x="193.093721" xlink:href="#md360ebad85" y="207.162089"/>
     <use style="fill:#1f77b4;stroke:#ffffff;stroke-width:0.48;" x="220.715707" xlink:href="#md360ebad85" y="173.880754"/>
     <use style="fill:#1f77b4;stroke:#ffffff;stroke-width:0.48;" x="218.970243" xlink:href="#md360ebad85" y="119.17535"/>
     <use style="fill:#1f77b4;stroke:#ffffff;stroke-width:0.48;" x="152.333231" xlink:href="#md360ebad85" y="212.472968"/>
     <use style="fill:#1f77b4;stroke:#ffffff;stroke-width:0.48;" x="181.377203" xlink:href="#md360ebad85" y="202.859636"/>
     <use style="fill:#1f77b4;stroke:#ffffff;stroke-width:0.48;" x="157.665772" xlink:href="#md360ebad85" y="212.40893"/>
     <use style="fill:#1f77b4;stroke:#ffffff;stroke-width:0.48;" x="139.048627" xlink:href="#md360ebad85" y="210.220659"/>
     <use style="fill:#1f77b4;stroke:#ffffff;stroke-width:0.48;" x="203.875083" xlink:href="#md360ebad85" y="200.220423"/>
     <use style="fill:#1f77b4;stroke:#ffffff;stroke-width:0.48;" x="141.34707" xlink:href="#md360ebad85" y="195.948205"/>
     <use style="fill:#1f77b4;stroke:#ffffff;stroke-width:0.48;" x="142.795123" xlink:href="#md360ebad85" y="212.878742"/>
     <use style="fill:#1f77b4;stroke:#ffffff;stroke-width:0.48;" x="184.285871" xlink:href="#md360ebad85" y="199.640778"/>
     <use style="fill:#1f77b4;stroke:#ffffff;stroke-width:0.48;" x="189.397088" xlink:href="#md360ebad85" y="174.229649"/>
     <use style="fill:#1f77b4;stroke:#ffffff;stroke-width:0.48;" x="143.864065" xlink:href="#md360ebad85" y="202.360794"/>
     <use style="fill:#1f77b4;stroke:#ffffff;stroke-width:0.48;" x="237.649139" xlink:href="#md360ebad85" y="160.719386"/>
     <use style="fill:#1f77b4;stroke:#ffffff;stroke-width:0.48;" x="200.289853" xlink:href="#md360ebad85" y="206.684598"/>
     <use style="fill:#1f77b4;stroke:#ffffff;stroke-width:0.48;" x="199.189955" xlink:href="#md360ebad85" y="202.045853"/>
     <use style="fill:#1f77b4;stroke:#ffffff;stroke-width:0.48;" x="168.990501" xlink:href="#md360ebad85" y="196.666212"/>
     <use style="fill:#1f77b4;stroke:#ffffff;stroke-width:0.48;" x="230.357988" xlink:href="#md360ebad85" y="210.342892"/>
     <use style="fill:#1f77b4;stroke:#ffffff;stroke-width:0.48;" x="147.678995" xlink:href="#md360ebad85" y="199.577778"/>
     <use style="fill:#1f77b4;stroke:#ffffff;stroke-width:0.48;" x="307.393573" xlink:href="#md360ebad85" y="114.49345"/>
     <use style="fill:#1f77b4;stroke:#ffffff;stroke-width:0.48;" x="165.81752" xlink:href="#md360ebad85" y="207.329935"/>
     <use style="fill:#1f77b4;stroke:#ffffff;stroke-width:0.48;" x="201.47208" xlink:href="#md360ebad85" y="199.253882"/>
     <use style="fill:#1f77b4;stroke:#ffffff;stroke-width:0.48;" x="164.119313" xlink:href="#md360ebad85" y="206.669729"/>
     <use style="fill:#1f77b4;stroke:#ffffff;stroke-width:0.48;" x="145.298952" xlink:href="#md360ebad85" y="196.251895"/>
     <use style="fill:#1f77b4;stroke:#ffffff;stroke-width:0.48;" x="164.317877" xlink:href="#md360ebad85" y="166.357589"/>
     <use style="fill:#1f77b4;stroke:#ffffff;stroke-width:0.48;" x="209.301748" xlink:href="#md360ebad85" y="201.602594"/>
     <use style="fill:#1f77b4;stroke:#ffffff;stroke-width:0.48;" x="165.631859" xlink:href="#md360ebad85" y="193.546159"/>
     <use style="fill:#1f77b4;stroke:#ffffff;stroke-width:0.48;" x="141.409359" xlink:href="#md360ebad85" y="210.498951"/>
     <use style="fill:#1f77b4;stroke:#ffffff;stroke-width:0.48;" x="201.542731" xlink:href="#md360ebad85" y="187.781721"/>
     <use style="fill:#1f77b4;stroke:#ffffff;stroke-width:0.48;" x="150.459808" xlink:href="#md360ebad85" y="212.273128"/>
     <use style="fill:#1f77b4;stroke:#ffffff;stroke-width:0.48;" x="176.268134" xlink:href="#md360ebad85" y="212.216708"/>
     <use style="fill:#1f77b4;stroke:#ffffff;stroke-width:0.48;" x="212.41963" xlink:href="#md360ebad85" y="161.289828"/>
     <use style="fill:#1f77b4;stroke:#ffffff;stroke-width:0.48;" x="286.697475" xlink:href="#md360ebad85" y="83.211294"/>
     <use style="fill:#1f77b4;stroke:#ffffff;stroke-width:0.48;" x="158.369408" xlink:href="#md360ebad85" y="204.465933"/>
     <use style="fill:#1f77b4;stroke:#ffffff;stroke-width:0.48;" x="288.001406" xlink:href="#md360ebad85" y="34.863636"/>
     <use style="fill:#1f77b4;stroke:#ffffff;stroke-width:0.48;" x="238.408621" xlink:href="#md360ebad85" y="184.408893"/>
     <use style="fill:#1f77b4;stroke:#ffffff;stroke-width:0.48;" x="151.634475" xlink:href="#md360ebad85" y="203.040961"/>
     <use style="fill:#1f77b4;stroke:#ffffff;stroke-width:0.48;" x="211.990442" xlink:href="#md360ebad85" y="171.113983"/>
     <use style="fill:#1f77b4;stroke:#ffffff;stroke-width:0.48;" x="147.553846" xlink:href="#md360ebad85" y="208.399859"/>
     <use style="fill:#1f77b4;stroke:#ffffff;stroke-width:0.48;" x="210.936948" xlink:href="#md360ebad85" y="192.974858"/>
     <use style="fill:#1f77b4;stroke:#ffffff;stroke-width:0.48;" x="193.59565" xlink:href="#md360ebad85" y="198.68818"/>
     <use style="fill:#1f77b4;stroke:#ffffff;stroke-width:0.48;" x="184.092135" xlink:href="#md360ebad85" y="211.982118"/>
     <use style="fill:#1f77b4;stroke:#ffffff;stroke-width:0.48;" x="286.440696" xlink:href="#md360ebad85" y="170.324547"/>
     <use style="fill:#1f77b4;stroke:#ffffff;stroke-width:0.48;" x="279.930288" xlink:href="#md360ebad85" y="146.356347"/>
     <use style="fill:#1f77b4;stroke:#ffffff;stroke-width:0.48;" x="193.507999" xlink:href="#md360ebad85" y="206.677696"/>
     <use style="fill:#1f77b4;stroke:#ffffff;stroke-width:0.48;" x="278.873892" xlink:href="#md360ebad85" y="128.783728"/>
     <use style="fill:#1f77b4;stroke:#ffffff;stroke-width:0.48;" x="146.495071" xlink:href="#md360ebad85" y="204.68532"/>
     <use style="fill:#1f77b4;stroke:#ffffff;stroke-width:0.48;" x="150.331305" xlink:href="#md360ebad85" y="198.17848"/>
     <use style="fill:#1f77b4;stroke:#ffffff;stroke-width:0.48;" x="153.078675" xlink:href="#md360ebad85" y="205.444395"/>
     <use style="fill:#1f77b4;stroke:#ffffff;stroke-width:0.48;" x="251.925124" xlink:href="#md360ebad85" y="200.12403"/>
     <use style="fill:#1f77b4;stroke:#ffffff;stroke-width:0.48;" x="168.294767" xlink:href="#md360ebad85" y="204.755519"/>
     <use style="fill:#1f77b4;stroke:#ffffff;stroke-width:0.48;" x="183.677709" xlink:href="#md360ebad85" y="194.342034"/>
     <use style="fill:#1f77b4;stroke:#ffffff;stroke-width:0.48;" x="241.438319" xlink:href="#md360ebad85" y="167.951288"/>
     <use style="fill:#1f77b4;stroke:#ffffff;stroke-width:0.48;" x="197.648702" xlink:href="#md360ebad85" y="194.515404"/>
     <use style="fill:#1f77b4;stroke:#ffffff;stroke-width:0.48;" x="159.364467" xlink:href="#md360ebad85" y="209.651038"/>
     <use style="fill:#1f77b4;stroke:#ffffff;stroke-width:0.48;" x="282.665396" xlink:href="#md360ebad85" y="82.440854"/>
     <use style="fill:#1f77b4;stroke:#ffffff;stroke-width:0.48;" x="223.098174" xlink:href="#md360ebad85" y="143.400413"/>
     <use style="fill:#1f77b4;stroke:#ffffff;stroke-width:0.48;" x="237.722324" xlink:href="#md360ebad85" y="196.306207"/>
     <use style="fill:#1f77b4;stroke:#ffffff;stroke-width:0.48;" x="142.588904" xlink:href="#md360ebad85" y="204.423789"/>
     <use style="fill:#1f77b4;stroke:#ffffff;stroke-width:0.48;" x="140.408924" xlink:href="#md360ebad85" y="166.757318"/>
     <use style="fill:#1f77b4;stroke:#ffffff;stroke-width:0.48;" x="173.294337" xlink:href="#md360ebad85" y="130.370067"/>
     <use style="fill:#1f77b4;stroke:#ffffff;stroke-width:0.48;" x="159.817811" xlink:href="#md360ebad85" y="201.611515"/>
     <use style="fill:#1f77b4;stroke:#ffffff;stroke-width:0.48;" x="207.516785" xlink:href="#md360ebad85" y="164.654197"/>
     <use style="fill:#1f77b4;stroke:#ffffff;stroke-width:0.48;" x="229.483471" xlink:href="#md360ebad85" y="180.089502"/>
     <use style="fill:#1f77b4;stroke:#ffffff;stroke-width:0.48;" x="234.389497" xlink:href="#md360ebad85" y="126.535592"/>
     <use style="fill:#1f77b4;stroke:#ffffff;stroke-width:0.48;" x="281.679029" xlink:href="#md360ebad85" y="134.697199"/>
     <use style="fill:#1f77b4;stroke:#ffffff;stroke-width:0.48;" x="215.819088" xlink:href="#md360ebad85" y="182.197828"/>
     <use style="fill:#1f77b4;stroke:#ffffff;stroke-width:0.48;" x="218.997761" xlink:href="#md360ebad85" y="184.353946"/>
     <use style="fill:#1f77b4;stroke:#ffffff;stroke-width:0.48;" x="163.654749" xlink:href="#md360ebad85" y="202.621273"/>
     <use style="fill:#1f77b4;stroke:#ffffff;stroke-width:0.48;" x="188.673561" xlink:href="#md360ebad85" y="212.600802"/>
     <use style="fill:#1f77b4;stroke:#ffffff;stroke-width:0.48;" x="211.09336" xlink:href="#md360ebad85" y="212.558232"/>
     <use style="fill:#1f77b4;stroke:#ffffff;stroke-width:0.48;" x="254.906666" xlink:href="#md360ebad85" y="152.311074"/>
     <use style="fill:#1f77b4;stroke:#ffffff;stroke-width:0.48;" x="215.063431" xlink:href="#md360ebad85" y="211.470122"/>
     <use style="fill:#1f77b4;stroke:#ffffff;stroke-width:0.48;" x="175.819509" xlink:href="#md360ebad85" y="185.380316"/>
     <use style="fill:#1f77b4;stroke:#ffffff;stroke-width:0.48;" x="208.486728" xlink:href="#md360ebad85" y="201.573637"/>
     <use style="fill:#1f77b4;stroke:#ffffff;stroke-width:0.48;" x="213.12637" xlink:href="#md360ebad85" y="189.929443"/>
     <use style="fill:#1f77b4;stroke:#ffffff;stroke-width:0.48;" x="323.573286" xlink:href="#md360ebad85" y="139.431905"/>
     <use style="fill:#1f77b4;stroke:#ffffff;stroke-width:0.48;" x="202.153971" xlink:href="#md360ebad85" y="179.649463"/>
     <use style="fill:#1f77b4;stroke:#ffffff;stroke-width:0.48;" x="241.60961" xlink:href="#md360ebad85" y="176.209254"/>
     <use style="fill:#1f77b4;stroke:#ffffff;stroke-width:0.48;" x="167.402151" xlink:href="#md360ebad85" y="209.9231"/>
     <use style="fill:#1f77b4;stroke:#ffffff;stroke-width:0.48;" x="233.472371" xlink:href="#md360ebad85" y="176.695795"/>
     <use style="fill:#1f77b4;stroke:#ffffff;stroke-width:0.48;" x="141.267368" xlink:href="#md360ebad85" y="201.884869"/>
     <use style="fill:#1f77b4;stroke:#ffffff;stroke-width:0.48;" x="187.904045" xlink:href="#md360ebad85" y="209.287803"/>
     <use style="fill:#1f77b4;stroke:#ffffff;stroke-width:0.48;" x="211.777893" xlink:href="#md360ebad85" y="207.341359"/>
     <use style="fill:#1f77b4;stroke:#ffffff;stroke-width:0.48;" x="128.612677" xlink:href="#md360ebad85" y="199.209231"/>
     <use style="fill:#1f77b4;stroke:#ffffff;stroke-width:0.48;" x="198.119089" xlink:href="#md360ebad85" y="191.683307"/>
     <use style="fill:#1f77b4;stroke:#ffffff;stroke-width:0.48;" x="168.106876" xlink:href="#md360ebad85" y="207.709353"/>
     <use style="fill:#1f77b4;stroke:#ffffff;stroke-width:0.48;" x="138.878401" xlink:href="#md360ebad85" y="211.847359"/>
     <use style="fill:#1f77b4;stroke:#ffffff;stroke-width:0.48;" x="184.332388" xlink:href="#md360ebad85" y="205.639529"/>
     <use style="fill:#1f77b4;stroke:#ffffff;stroke-width:0.48;" x="291.413754" xlink:href="#md360ebad85" y="120.586559"/>
     <use style="fill:#1f77b4;stroke:#ffffff;stroke-width:0.48;" x="153.103194" xlink:href="#md360ebad85" y="205.151809"/>
     <use style="fill:#1f77b4;stroke:#ffffff;stroke-width:0.48;" x="288.001406" xlink:href="#md360ebad85" y="190.286802"/>
     <use style="fill:#1f77b4;stroke:#ffffff;stroke-width:0.48;" x="238.656155" xlink:href="#md360ebad85" y="109.346755"/>
     <use style="fill:#1f77b4;stroke:#ffffff;stroke-width:0.48;" x="150.878787" xlink:href="#md360ebad85" y="197.484811"/>
     <use style="fill:#1f77b4;stroke:#ffffff;stroke-width:0.48;" x="219.447736" xlink:href="#md360ebad85" y="202.630159"/>
     <use style="fill:#1f77b4;stroke:#ffffff;stroke-width:0.48;" x="182.631388" xlink:href="#md360ebad85" y="201.498101"/>
     <use style="fill:#1f77b4;stroke:#ffffff;stroke-width:0.48;" x="226.406249" xlink:href="#md360ebad85" y="198.227682"/>
    </g>
   </g>
   <g id="matplotlib.axis_1">
    <g id="xtick_1">
     <g id="line2d_1">
      <defs>
       <path d="M 0 0 
L 0 3.5 
" id="me8db68e4da" style="stroke:#000000;stroke-width:0.8;"/>
      </defs>
      <g>
       <use style="stroke:#000000;stroke-width:0.8;" x="82.193182" xlink:href="#me8db68e4da" y="246.2"/>
      </g>
     </g>
     <g id="text_1">
      <!-- $0M -->
      <g transform="translate(71.516619 260.798437)scale(0.1 -0.1)">
       <defs>
        <path d="M 33.796875 -14.703125 
L 28.90625 -14.703125 
L 28.859375 0 
Q 23.734375 0.09375 18.609375 1.1875 
Q 13.484375 2.296875 8.296875 4.5 
L 8.296875 13.28125 
Q 13.28125 10.15625 18.375 8.5625 
Q 23.484375 6.984375 28.90625 6.9375 
L 28.90625 29.203125 
Q 18.109375 30.953125 13.203125 35.15625 
Q 8.296875 39.359375 8.296875 46.6875 
Q 8.296875 54.640625 13.625 59.21875 
Q 18.953125 63.8125 28.90625 64.5 
L 28.90625 75.984375 
L 33.796875 75.984375 
L 33.796875 64.65625 
Q 38.328125 64.453125 42.578125 63.6875 
Q 46.828125 62.9375 50.875 61.625 
L 50.875 53.078125 
Q 46.828125 55.125 42.546875 56.25 
Q 38.28125 57.375 33.796875 57.5625 
L 33.796875 36.71875 
Q 44.875 35.015625 50.09375 30.609375 
Q 55.328125 26.21875 55.328125 18.609375 
Q 55.328125 10.359375 49.78125 5.59375 
Q 44.234375 0.828125 33.796875 0.09375 
z
M 28.90625 37.59375 
L 28.90625 57.625 
Q 23.25 56.984375 20.265625 54.390625 
Q 17.28125 51.8125 17.28125 47.515625 
Q 17.28125 43.3125 20.03125 40.96875 
Q 22.796875 38.625 28.90625 37.59375 
z
M 33.796875 28.21875 
L 33.796875 7.078125 
Q 39.984375 7.90625 43.140625 10.59375 
Q 46.296875 13.28125 46.296875 17.671875 
Q 46.296875 21.96875 43.28125 24.5 
Q 40.28125 27.046875 33.796875 28.21875 
z
" id="DejaVuSans-36"/>
        <path d="M 31.78125 66.40625 
Q 24.171875 66.40625 20.328125 58.90625 
Q 16.5 51.421875 16.5 36.375 
Q 16.5 21.390625 20.328125 13.890625 
Q 24.171875 6.390625 31.78125 6.390625 
Q 39.453125 6.390625 43.28125 13.890625 
Q 47.125 21.390625 47.125 36.375 
Q 47.125 51.421875 43.28125 58.90625 
Q 39.453125 66.40625 31.78125 66.40625 
z
M 31.78125 74.21875 
Q 44.046875 74.21875 50.515625 64.515625 
Q 56.984375 54.828125 56.984375 36.375 
Q 56.984375 17.96875 50.515625 8.265625 
Q 44.046875 -1.421875 31.78125 -1.421875 
Q 19.53125 -1.421875 13.0625 8.265625 
Q 6.59375 17.96875 6.59375 36.375 
Q 6.59375 54.828125 13.0625 64.515625 
Q 19.53125 74.21875 31.78125 74.21875 
z
" id="DejaVuSans-48"/>
        <path d="M 9.8125 72.90625 
L 24.515625 72.90625 
L 43.109375 23.296875 
L 61.8125 72.90625 
L 76.515625 72.90625 
L 76.515625 0 
L 66.890625 0 
L 66.890625 64.015625 
L 48.09375 14.015625 
L 38.1875 14.015625 
L 19.390625 64.015625 
L 19.390625 0 
L 9.8125 0 
z
" id="DejaVuSans-77"/>
       </defs>
       <use xlink:href="#DejaVuSans-36"/>
       <use x="63.623047" xlink:href="#DejaVuSans-48"/>
       <use x="127.246094" xlink:href="#DejaVuSans-77"/>
      </g>
     </g>
    </g>
    <g id="xtick_2">
     <g id="line2d_2">
      <g>
       <use style="stroke:#000000;stroke-width:0.8;" x="146.765909" xlink:href="#me8db68e4da" y="246.2"/>
      </g>
     </g>
     <g id="text_2">
      <!-- $100M -->
      <g transform="translate(129.726847 260.798437)scale(0.1 -0.1)">
       <defs>
        <path d="M 12.40625 8.296875 
L 28.515625 8.296875 
L 28.515625 63.921875 
L 10.984375 60.40625 
L 10.984375 69.390625 
L 28.421875 72.90625 
L 38.28125 72.90625 
L 38.28125 8.296875 
L 54.390625 8.296875 
L 54.390625 0 
L 12.40625 0 
z
" id="DejaVuSans-49"/>
       </defs>
       <use xlink:href="#DejaVuSans-36"/>
       <use x="63.623047" xlink:href="#DejaVuSans-49"/>
       <use x="127.246094" xlink:href="#DejaVuSans-48"/>
       <use x="190.869141" xlink:href="#DejaVuSans-48"/>
       <use x="254.492188" xlink:href="#DejaVuSans-77"/>
      </g>
     </g>
    </g>
    <g id="xtick_3">
     <g id="line2d_3">
      <g>
       <use style="stroke:#000000;stroke-width:0.8;" x="211.338636" xlink:href="#me8db68e4da" y="246.2"/>
      </g>
     </g>
     <g id="text_3">
      <!-- $200M -->
      <g transform="translate(194.299574 260.798437)scale(0.1 -0.1)">
       <defs>
        <path d="M 19.1875 8.296875 
L 53.609375 8.296875 
L 53.609375 0 
L 7.328125 0 
L 7.328125 8.296875 
Q 12.9375 14.109375 22.625 23.890625 
Q 32.328125 33.6875 34.8125 36.53125 
Q 39.546875 41.84375 41.421875 45.53125 
Q 43.3125 49.21875 43.3125 52.78125 
Q 43.3125 58.59375 39.234375 62.25 
Q 35.15625 65.921875 28.609375 65.921875 
Q 23.96875 65.921875 18.8125 64.3125 
Q 13.671875 62.703125 7.8125 59.421875 
L 7.8125 69.390625 
Q 13.765625 71.78125 18.9375 73 
Q 24.125 74.21875 28.421875 74.21875 
Q 39.75 74.21875 46.484375 68.546875 
Q 53.21875 62.890625 53.21875 53.421875 
Q 53.21875 48.921875 51.53125 44.890625 
Q 49.859375 40.875 45.40625 35.40625 
Q 44.1875 33.984375 37.640625 27.21875 
Q 31.109375 20.453125 19.1875 8.296875 
z
" id="DejaVuSans-50"/>
       </defs>
       <use xlink:href="#DejaVuSans-36"/>
       <use x="63.623047" xlink:href="#DejaVuSans-50"/>
       <use x="127.246094" xlink:href="#DejaVuSans-48"/>
       <use x="190.869141" xlink:href="#DejaVuSans-48"/>
       <use x="254.492188" xlink:href="#DejaVuSans-77"/>
      </g>
     </g>
    </g>
    <g id="xtick_4">
     <g id="line2d_4">
      <g>
       <use style="stroke:#000000;stroke-width:0.8;" x="275.911364" xlink:href="#me8db68e4da" y="246.2"/>
      </g>
     </g>
     <g id="text_4">
      <!-- $300M -->
      <g transform="translate(258.872301 260.798437)scale(0.1 -0.1)">
       <defs>
        <path d="M 40.578125 39.3125 
Q 47.65625 37.796875 51.625 33 
Q 55.609375 28.21875 55.609375 21.1875 
Q 55.609375 10.40625 48.1875 4.484375 
Q 40.765625 -1.421875 27.09375 -1.421875 
Q 22.515625 -1.421875 17.65625 -0.515625 
Q 12.796875 0.390625 7.625 2.203125 
L 7.625 11.71875 
Q 11.71875 9.328125 16.59375 8.109375 
Q 21.484375 6.890625 26.8125 6.890625 
Q 36.078125 6.890625 40.9375 10.546875 
Q 45.796875 14.203125 45.796875 21.1875 
Q 45.796875 27.640625 41.28125 31.265625 
Q 36.765625 34.90625 28.71875 34.90625 
L 20.21875 34.90625 
L 20.21875 43.015625 
L 29.109375 43.015625 
Q 36.375 43.015625 40.234375 45.921875 
Q 44.09375 48.828125 44.09375 54.296875 
Q 44.09375 59.90625 40.109375 62.90625 
Q 36.140625 65.921875 28.71875 65.921875 
Q 24.65625 65.921875 20.015625 65.03125 
Q 15.375 64.15625 9.8125 62.3125 
L 9.8125 71.09375 
Q 15.4375 72.65625 20.34375 73.4375 
Q 25.25 74.21875 29.59375 74.21875 
Q 40.828125 74.21875 47.359375 69.109375 
Q 53.90625 64.015625 53.90625 55.328125 
Q 53.90625 49.265625 50.4375 45.09375 
Q 46.96875 40.921875 40.578125 39.3125 
z
" id="DejaVuSans-51"/>
       </defs>
       <use xlink:href="#DejaVuSans-36"/>
       <use x="63.623047" xlink:href="#DejaVuSans-51"/>
       <use x="127.246094" xlink:href="#DejaVuSans-48"/>
       <use x="190.869141" xlink:href="#DejaVuSans-48"/>
       <use x="254.492188" xlink:href="#DejaVuSans-77"/>
      </g>
     </g>
    </g>
    <g id="xtick_5">
     <g id="line2d_5">
      <g>
       <use style="stroke:#000000;stroke-width:0.8;" x="340.484091" xlink:href="#me8db68e4da" y="246.2"/>
      </g>
     </g>
     <g id="text_5">
      <!-- $400M -->
      <g transform="translate(323.445028 260.798437)scale(0.1 -0.1)">
       <defs>
        <path d="M 37.796875 64.3125 
L 12.890625 25.390625 
L 37.796875 25.390625 
z
M 35.203125 72.90625 
L 47.609375 72.90625 
L 47.609375 25.390625 
L 58.015625 25.390625 
L 58.015625 17.1875 
L 47.609375 17.1875 
L 47.609375 0 
L 37.796875 0 
L 37.796875 17.1875 
L 4.890625 17.1875 
L 4.890625 26.703125 
z
" id="DejaVuSans-52"/>
       </defs>
       <use xlink:href="#DejaVuSans-36"/>
       <use x="63.623047" xlink:href="#DejaVuSans-52"/>
       <use x="127.246094" xlink:href="#DejaVuSans-48"/>
       <use x="190.869141" xlink:href="#DejaVuSans-48"/>
       <use x="254.492188" xlink:href="#DejaVuSans-77"/>
      </g>
     </g>
    </g>
    <g id="xtick_6">
     <g id="line2d_6">
      <g>
       <use style="stroke:#000000;stroke-width:0.8;" x="405.056818" xlink:href="#me8db68e4da" y="246.2"/>
      </g>
     </g>
     <g id="text_6">
      <!-- $500M -->
      <g transform="translate(388.017756 260.798437)scale(0.1 -0.1)">
       <defs>
        <path d="M 10.796875 72.90625 
L 49.515625 72.90625 
L 49.515625 64.59375 
L 19.828125 64.59375 
L 19.828125 46.734375 
Q 21.96875 47.46875 24.109375 47.828125 
Q 26.265625 48.1875 28.421875 48.1875 
Q 40.625 48.1875 47.75 41.5 
Q 54.890625 34.8125 54.890625 23.390625 
Q 54.890625 11.625 47.5625 5.09375 
Q 40.234375 -1.421875 26.90625 -1.421875 
Q 22.3125 -1.421875 17.546875 -0.640625 
Q 12.796875 0.140625 7.71875 1.703125 
L 7.71875 11.625 
Q 12.109375 9.234375 16.796875 8.0625 
Q 21.484375 6.890625 26.703125 6.890625 
Q 35.15625 6.890625 40.078125 11.328125 
Q 45.015625 15.765625 45.015625 23.390625 
Q 45.015625 31 40.078125 35.4375 
Q 35.15625 39.890625 26.703125 39.890625 
Q 22.75 39.890625 18.8125 39.015625 
Q 14.890625 38.140625 10.796875 36.28125 
z
" id="DejaVuSans-53"/>
       </defs>
       <use xlink:href="#DejaVuSans-36"/>
       <use x="63.623047" xlink:href="#DejaVuSans-53"/>
       <use x="127.246094" xlink:href="#DejaVuSans-48"/>
       <use x="190.869141" xlink:href="#DejaVuSans-48"/>
       <use x="254.492188" xlink:href="#DejaVuSans-77"/>
      </g>
     </g>
    </g>
    <g id="text_7">
     <!-- Predicted revenue -->
     <g transform="translate(198.096094 274.476562)scale(0.1 -0.1)">
      <defs>
       <path d="M 19.671875 64.796875 
L 19.671875 37.40625 
L 32.078125 37.40625 
Q 38.96875 37.40625 42.71875 40.96875 
Q 46.484375 44.53125 46.484375 51.125 
Q 46.484375 57.671875 42.71875 61.234375 
Q 38.96875 64.796875 32.078125 64.796875 
z
M 9.8125 72.90625 
L 32.078125 72.90625 
Q 44.34375 72.90625 50.609375 67.359375 
Q 56.890625 61.8125 56.890625 51.125 
Q 56.890625 40.328125 50.609375 34.8125 
Q 44.34375 29.296875 32.078125 29.296875 
L 19.671875 29.296875 
L 19.671875 0 
L 9.8125 0 
z
" id="DejaVuSans-80"/>
       <path d="M 41.109375 46.296875 
Q 39.59375 47.171875 37.8125 47.578125 
Q 36.03125 48 33.890625 48 
Q 26.265625 48 22.1875 43.046875 
Q 18.109375 38.09375 18.109375 28.8125 
L 18.109375 0 
L 9.078125 0 
L 9.078125 54.6875 
L 18.109375 54.6875 
L 18.109375 46.1875 
Q 20.953125 51.171875 25.484375 53.578125 
Q 30.03125 56 36.53125 56 
Q 37.453125 56 38.578125 55.875 
Q 39.703125 55.765625 41.0625 55.515625 
z
" id="DejaVuSans-114"/>
       <path d="M 56.203125 29.59375 
L 56.203125 25.203125 
L 14.890625 25.203125 
Q 15.484375 15.921875 20.484375 11.0625 
Q 25.484375 6.203125 34.421875 6.203125 
Q 39.59375 6.203125 44.453125 7.46875 
Q 49.3125 8.734375 54.109375 11.28125 
L 54.109375 2.78125 
Q 49.265625 0.734375 44.1875 -0.34375 
Q 39.109375 -1.421875 33.890625 -1.421875 
Q 20.796875 -1.421875 13.15625 6.1875 
Q 5.515625 13.8125 5.515625 26.8125 
Q 5.515625 40.234375 12.765625 48.109375 
Q 20.015625 56 32.328125 56 
Q 43.359375 56 49.78125 48.890625 
Q 56.203125 41.796875 56.203125 29.59375 
z
M 47.21875 32.234375 
Q 47.125 39.59375 43.09375 43.984375 
Q 39.0625 48.390625 32.421875 48.390625 
Q 24.90625 48.390625 20.390625 44.140625 
Q 15.875 39.890625 15.1875 32.171875 
z
" id="DejaVuSans-101"/>
       <path d="M 45.40625 46.390625 
L 45.40625 75.984375 
L 54.390625 75.984375 
L 54.390625 0 
L 45.40625 0 
L 45.40625 8.203125 
Q 42.578125 3.328125 38.25 0.953125 
Q 33.9375 -1.421875 27.875 -1.421875 
Q 17.96875 -1.421875 11.734375 6.484375 
Q 5.515625 14.40625 5.515625 27.296875 
Q 5.515625 40.1875 11.734375 48.09375 
Q 17.96875 56 27.875 56 
Q 33.9375 56 38.25 53.625 
Q 42.578125 51.265625 45.40625 46.390625 
z
M 14.796875 27.296875 
Q 14.796875 17.390625 18.875 11.75 
Q 22.953125 6.109375 30.078125 6.109375 
Q 37.203125 6.109375 41.296875 11.75 
Q 45.40625 17.390625 45.40625 27.296875 
Q 45.40625 37.203125 41.296875 42.84375 
Q 37.203125 48.484375 30.078125 48.484375 
Q 22.953125 48.484375 18.875 42.84375 
Q 14.796875 37.203125 14.796875 27.296875 
z
" id="DejaVuSans-100"/>
       <path d="M 9.421875 54.6875 
L 18.40625 54.6875 
L 18.40625 0 
L 9.421875 0 
z
M 9.421875 75.984375 
L 18.40625 75.984375 
L 18.40625 64.59375 
L 9.421875 64.59375 
z
" id="DejaVuSans-105"/>
       <path d="M 48.78125 52.59375 
L 48.78125 44.1875 
Q 44.96875 46.296875 41.140625 47.34375 
Q 37.3125 48.390625 33.40625 48.390625 
Q 24.65625 48.390625 19.8125 42.84375 
Q 14.984375 37.3125 14.984375 27.296875 
Q 14.984375 17.28125 19.8125 11.734375 
Q 24.65625 6.203125 33.40625 6.203125 
Q 37.3125 6.203125 41.140625 7.25 
Q 44.96875 8.296875 48.78125 10.40625 
L 48.78125 2.09375 
Q 45.015625 0.34375 40.984375 -0.53125 
Q 36.96875 -1.421875 32.421875 -1.421875 
Q 20.0625 -1.421875 12.78125 6.34375 
Q 5.515625 14.109375 5.515625 27.296875 
Q 5.515625 40.671875 12.859375 48.328125 
Q 20.21875 56 33.015625 56 
Q 37.15625 56 41.109375 55.140625 
Q 45.0625 54.296875 48.78125 52.59375 
z
" id="DejaVuSans-99"/>
       <path d="M 18.3125 70.21875 
L 18.3125 54.6875 
L 36.8125 54.6875 
L 36.8125 47.703125 
L 18.3125 47.703125 
L 18.3125 18.015625 
Q 18.3125 11.328125 20.140625 9.421875 
Q 21.96875 7.515625 27.59375 7.515625 
L 36.8125 7.515625 
L 36.8125 0 
L 27.59375 0 
Q 17.1875 0 13.234375 3.875 
Q 9.28125 7.765625 9.28125 18.015625 
L 9.28125 47.703125 
L 2.6875 47.703125 
L 2.6875 54.6875 
L 9.28125 54.6875 
L 9.28125 70.21875 
z
" id="DejaVuSans-116"/>
       <path id="DejaVuSans-32"/>
       <path d="M 2.984375 54.6875 
L 12.5 54.6875 
L 29.59375 8.796875 
L 46.6875 54.6875 
L 56.203125 54.6875 
L 35.6875 0 
L 23.484375 0 
z
" id="DejaVuSans-118"/>
       <path d="M 54.890625 33.015625 
L 54.890625 0 
L 45.90625 0 
L 45.90625 32.71875 
Q 45.90625 40.484375 42.875 44.328125 
Q 39.84375 48.1875 33.796875 48.1875 
Q 26.515625 48.1875 22.3125 43.546875 
Q 18.109375 38.921875 18.109375 30.90625 
L 18.109375 0 
L 9.078125 0 
L 9.078125 54.6875 
L 18.109375 54.6875 
L 18.109375 46.1875 
Q 21.34375 51.125 25.703125 53.5625 
Q 30.078125 56 35.796875 56 
Q 45.21875 56 50.046875 50.171875 
Q 54.890625 44.34375 54.890625 33.015625 
z
" id="DejaVuSans-110"/>
       <path d="M 8.5 21.578125 
L 8.5 54.6875 
L 17.484375 54.6875 
L 17.484375 21.921875 
Q 17.484375 14.15625 20.5 10.265625 
Q 23.53125 6.390625 29.59375 6.390625 
Q 36.859375 6.390625 41.078125 11.03125 
Q 45.3125 15.671875 45.3125 23.6875 
L 45.3125 54.6875 
L 54.296875 54.6875 
L 54.296875 0 
L 45.3125 0 
L 45.3125 8.40625 
Q 42.046875 3.421875 37.71875 1 
Q 33.40625 -1.421875 27.6875 -1.421875 
Q 18.265625 -1.421875 13.375 4.4375 
Q 8.5 10.296875 8.5 21.578125 
z
M 31.109375 56 
z
" id="DejaVuSans-117"/>
      </defs>
      <use xlink:href="#DejaVuSans-80"/>
      <use x="58.552734" xlink:href="#DejaVuSans-114"/>
      <use x="97.416016" xlink:href="#DejaVuSans-101"/>
      <use x="158.939453" xlink:href="#DejaVuSans-100"/>
      <use x="222.416016" xlink:href="#DejaVuSans-105"/>
      <use x="250.199219" xlink:href="#DejaVuSans-99"/>
      <use x="305.179688" xlink:href="#DejaVuSans-116"/>
      <use x="344.388672" xlink:href="#DejaVuSans-101"/>
      <use x="405.912109" xlink:href="#DejaVuSans-100"/>
      <use x="469.388672" xlink:href="#DejaVuSans-32"/>
      <use x="501.175781" xlink:href="#DejaVuSans-114"/>
      <use x="540.039062" xlink:href="#DejaVuSans-101"/>
      <use x="601.5625" xlink:href="#DejaVuSans-118"/>
      <use x="660.742188" xlink:href="#DejaVuSans-101"/>
      <use x="722.265625" xlink:href="#DejaVuSans-110"/>
      <use x="785.644531" xlink:href="#DejaVuSans-117"/>
      <use x="849.023438" xlink:href="#DejaVuSans-101"/>
     </g>
    </g>
   </g>
   <g id="matplotlib.axis_2">
    <g id="ytick_1">
     <g id="line2d_7">
      <defs>
       <path d="M 0 0 
L -3.5 0 
" id="mdfa7f76ad0" style="stroke:#000000;stroke-width:0.8;"/>
      </defs>
      <g>
       <use style="stroke:#000000;stroke-width:0.8;" x="66.05" xlink:href="#mdfa7f76ad0" y="236.136364"/>
      </g>
     </g>
     <g id="text_8">
      <!-- $0M -->
      <g transform="translate(37.696875 239.935582)scale(0.1 -0.1)">
       <use xlink:href="#DejaVuSans-36"/>
       <use x="63.623047" xlink:href="#DejaVuSans-48"/>
       <use x="127.246094" xlink:href="#DejaVuSans-77"/>
      </g>
     </g>
    </g>
    <g id="ytick_2">
     <g id="line2d_8">
      <g>
       <use style="stroke:#000000;stroke-width:0.8;" x="66.05" xlink:href="#mdfa7f76ad0" y="207.400628"/>
      </g>
     </g>
     <g id="text_9">
      <!-- $100M -->
      <g transform="translate(24.971875 211.199847)scale(0.1 -0.1)">
       <use xlink:href="#DejaVuSans-36"/>
       <use x="63.623047" xlink:href="#DejaVuSans-49"/>
       <use x="127.246094" xlink:href="#DejaVuSans-48"/>
       <use x="190.869141" xlink:href="#DejaVuSans-48"/>
       <use x="254.492188" xlink:href="#DejaVuSans-77"/>
      </g>
     </g>
    </g>
    <g id="ytick_3">
     <g id="line2d_9">
      <g>
       <use style="stroke:#000000;stroke-width:0.8;" x="66.05" xlink:href="#mdfa7f76ad0" y="178.664892"/>
      </g>
     </g>
     <g id="text_10">
      <!-- $200M -->
      <g transform="translate(24.971875 182.464111)scale(0.1 -0.1)">
       <use xlink:href="#DejaVuSans-36"/>
       <use x="63.623047" xlink:href="#DejaVuSans-50"/>
       <use x="127.246094" xlink:href="#DejaVuSans-48"/>
       <use x="190.869141" xlink:href="#DejaVuSans-48"/>
       <use x="254.492188" xlink:href="#DejaVuSans-77"/>
      </g>
     </g>
    </g>
    <g id="ytick_4">
     <g id="line2d_10">
      <g>
       <use style="stroke:#000000;stroke-width:0.8;" x="66.05" xlink:href="#mdfa7f76ad0" y="149.929156"/>
      </g>
     </g>
     <g id="text_11">
      <!-- $300M -->
      <g transform="translate(24.971875 153.728375)scale(0.1 -0.1)">
       <use xlink:href="#DejaVuSans-36"/>
       <use x="63.623047" xlink:href="#DejaVuSans-51"/>
       <use x="127.246094" xlink:href="#DejaVuSans-48"/>
       <use x="190.869141" xlink:href="#DejaVuSans-48"/>
       <use x="254.492188" xlink:href="#DejaVuSans-77"/>
      </g>
     </g>
    </g>
    <g id="ytick_5">
     <g id="line2d_11">
      <g>
       <use style="stroke:#000000;stroke-width:0.8;" x="66.05" xlink:href="#mdfa7f76ad0" y="121.193421"/>
      </g>
     </g>
     <g id="text_12">
      <!-- $400M -->
      <g transform="translate(24.971875 124.992639)scale(0.1 -0.1)">
       <use xlink:href="#DejaVuSans-36"/>
       <use x="63.623047" xlink:href="#DejaVuSans-52"/>
       <use x="127.246094" xlink:href="#DejaVuSans-48"/>
       <use x="190.869141" xlink:href="#DejaVuSans-48"/>
       <use x="254.492188" xlink:href="#DejaVuSans-77"/>
      </g>
     </g>
    </g>
    <g id="ytick_6">
     <g id="line2d_12">
      <g>
       <use style="stroke:#000000;stroke-width:0.8;" x="66.05" xlink:href="#mdfa7f76ad0" y="92.457685"/>
      </g>
     </g>
     <g id="text_13">
      <!-- $500M -->
      <g transform="translate(24.971875 96.256904)scale(0.1 -0.1)">
       <use xlink:href="#DejaVuSans-36"/>
       <use x="63.623047" xlink:href="#DejaVuSans-53"/>
       <use x="127.246094" xlink:href="#DejaVuSans-48"/>
       <use x="190.869141" xlink:href="#DejaVuSans-48"/>
       <use x="254.492188" xlink:href="#DejaVuSans-77"/>
      </g>
     </g>
    </g>
    <g id="ytick_7">
     <g id="line2d_13">
      <g>
       <use style="stroke:#000000;stroke-width:0.8;" x="66.05" xlink:href="#mdfa7f76ad0" y="63.721949"/>
      </g>
     </g>
     <g id="text_14">
      <!-- $600M -->
      <g transform="translate(24.971875 67.521168)scale(0.1 -0.1)">
       <defs>
        <path d="M 33.015625 40.375 
Q 26.375 40.375 22.484375 35.828125 
Q 18.609375 31.296875 18.609375 23.390625 
Q 18.609375 15.53125 22.484375 10.953125 
Q 26.375 6.390625 33.015625 6.390625 
Q 39.65625 6.390625 43.53125 10.953125 
Q 47.40625 15.53125 47.40625 23.390625 
Q 47.40625 31.296875 43.53125 35.828125 
Q 39.65625 40.375 33.015625 40.375 
z
M 52.59375 71.296875 
L 52.59375 62.3125 
Q 48.875 64.0625 45.09375 64.984375 
Q 41.3125 65.921875 37.59375 65.921875 
Q 27.828125 65.921875 22.671875 59.328125 
Q 17.53125 52.734375 16.796875 39.40625 
Q 19.671875 43.65625 24.015625 45.921875 
Q 28.375 48.1875 33.59375 48.1875 
Q 44.578125 48.1875 50.953125 41.515625 
Q 57.328125 34.859375 57.328125 23.390625 
Q 57.328125 12.15625 50.6875 5.359375 
Q 44.046875 -1.421875 33.015625 -1.421875 
Q 20.359375 -1.421875 13.671875 8.265625 
Q 6.984375 17.96875 6.984375 36.375 
Q 6.984375 53.65625 15.1875 63.9375 
Q 23.390625 74.21875 37.203125 74.21875 
Q 40.921875 74.21875 44.703125 73.484375 
Q 48.484375 72.75 52.59375 71.296875 
z
" id="DejaVuSans-54"/>
       </defs>
       <use xlink:href="#DejaVuSans-36"/>
       <use x="63.623047" xlink:href="#DejaVuSans-54"/>
       <use x="127.246094" xlink:href="#DejaVuSans-48"/>
       <use x="190.869141" xlink:href="#DejaVuSans-48"/>
       <use x="254.492188" xlink:href="#DejaVuSans-77"/>
      </g>
     </g>
    </g>
    <g id="ytick_8">
     <g id="line2d_14">
      <g>
       <use style="stroke:#000000;stroke-width:0.8;" x="66.05" xlink:href="#mdfa7f76ad0" y="34.986213"/>
      </g>
     </g>
     <g id="text_15">
      <!-- $700M -->
      <g transform="translate(24.971875 38.785432)scale(0.1 -0.1)">
       <defs>
        <path d="M 8.203125 72.90625 
L 55.078125 72.90625 
L 55.078125 68.703125 
L 28.609375 0 
L 18.3125 0 
L 43.21875 64.59375 
L 8.203125 64.59375 
z
" id="DejaVuSans-55"/>
       </defs>
       <use xlink:href="#DejaVuSans-36"/>
       <use x="63.623047" xlink:href="#DejaVuSans-55"/>
       <use x="127.246094" xlink:href="#DejaVuSans-48"/>
       <use x="190.869141" xlink:href="#DejaVuSans-48"/>
       <use x="254.492188" xlink:href="#DejaVuSans-77"/>
      </g>
     </g>
    </g>
    <g id="text_16">
     <!-- Actual revenue -->
     <g transform="translate(18.892187 173.222656)rotate(-90)scale(0.1 -0.1)">
      <defs>
       <path d="M 34.1875 63.1875 
L 20.796875 26.90625 
L 47.609375 26.90625 
z
M 28.609375 72.90625 
L 39.796875 72.90625 
L 67.578125 0 
L 57.328125 0 
L 50.6875 18.703125 
L 17.828125 18.703125 
L 11.1875 0 
L 0.78125 0 
z
" id="DejaVuSans-65"/>
       <path d="M 34.28125 27.484375 
Q 23.390625 27.484375 19.1875 25 
Q 14.984375 22.515625 14.984375 16.5 
Q 14.984375 11.71875 18.140625 8.90625 
Q 21.296875 6.109375 26.703125 6.109375 
Q 34.1875 6.109375 38.703125 11.40625 
Q 43.21875 16.703125 43.21875 25.484375 
L 43.21875 27.484375 
z
M 52.203125 31.203125 
L 52.203125 0 
L 43.21875 0 
L 43.21875 8.296875 
Q 40.140625 3.328125 35.546875 0.953125 
Q 30.953125 -1.421875 24.3125 -1.421875 
Q 15.921875 -1.421875 10.953125 3.296875 
Q 6 8.015625 6 15.921875 
Q 6 25.140625 12.171875 29.828125 
Q 18.359375 34.515625 30.609375 34.515625 
L 43.21875 34.515625 
L 43.21875 35.40625 
Q 43.21875 41.609375 39.140625 45 
Q 35.0625 48.390625 27.6875 48.390625 
Q 23 48.390625 18.546875 47.265625 
Q 14.109375 46.140625 10.015625 43.890625 
L 10.015625 52.203125 
Q 14.9375 54.109375 19.578125 55.046875 
Q 24.21875 56 28.609375 56 
Q 40.484375 56 46.34375 49.84375 
Q 52.203125 43.703125 52.203125 31.203125 
z
" id="DejaVuSans-97"/>
       <path d="M 9.421875 75.984375 
L 18.40625 75.984375 
L 18.40625 0 
L 9.421875 0 
z
" id="DejaVuSans-108"/>
      </defs>
      <use xlink:href="#DejaVuSans-65"/>
      <use x="66.658203" xlink:href="#DejaVuSans-99"/>
      <use x="121.638672" xlink:href="#DejaVuSans-116"/>
      <use x="160.847656" xlink:href="#DejaVuSans-117"/>
      <use x="224.226562" xlink:href="#DejaVuSans-97"/>
      <use x="285.505859" xlink:href="#DejaVuSans-108"/>
      <use x="313.289062" xlink:href="#DejaVuSans-32"/>
      <use x="345.076172" xlink:href="#DejaVuSans-114"/>
      <use x="383.939453" xlink:href="#DejaVuSans-101"/>
      <use x="445.462891" xlink:href="#DejaVuSans-118"/>
      <use x="504.642578" xlink:href="#DejaVuSans-101"/>
      <use x="566.166016" xlink:href="#DejaVuSans-110"/>
      <use x="629.544922" xlink:href="#DejaVuSans-117"/>
      <use x="692.923828" xlink:href="#DejaVuSans-101"/>
     </g>
    </g>
   </g>
   <g id="line2d_15">
    <path clip-path="url(#p44e08d1373)" d="M 82.193182 236.136364 
L 136.003788 212.189917 
L 189.814394 188.243471 
L 243.625 164.297024 
L 297.435606 140.350578 
L 351.246212 116.404131 
L 405.056818 92.457685 
" style="fill:none;stroke:#b2b2b2;stroke-dasharray:5.55,2.4;stroke-dashoffset:0;stroke-width:1.5;"/>
   </g>
   <g id="patch_3">
    <path d="M 66.05 246.2 
L 66.05 24.8 
" style="fill:none;stroke:#000000;stroke-linecap:square;stroke-linejoin:miter;stroke-width:0.8;"/>
   </g>
   <g id="patch_4">
    <path d="M 421.2 246.2 
L 421.2 24.8 
" style="fill:none;stroke:#000000;stroke-linecap:square;stroke-linejoin:miter;stroke-width:0.8;"/>
   </g>
   <g id="patch_5">
    <path d="M 66.05 246.2 
L 421.2 246.2 
" style="fill:none;stroke:#000000;stroke-linecap:square;stroke-linejoin:miter;stroke-width:0.8;"/>
   </g>
   <g id="patch_6">
    <path d="M 66.05 24.8 
L 421.2 24.8 
" style="fill:none;stroke:#000000;stroke-linecap:square;stroke-linejoin:miter;stroke-width:0.8;"/>
   </g>
   <g id="text_17">
    <!-- Predicted versus Actul revenue -->
    <g transform="translate(160.917812 18.8)scale(0.12 -0.12)">
     <defs>
      <path d="M 7.71875 0 
L 7.71875 71.578125 
L 34.71875 71.578125 
Q 41.84375 71.578125 45.609375 70.90625 
Q 50.875 70.015625 54.4375 67.546875 
Q 58.015625 65.09375 60.1875 60.640625 
Q 62.359375 56.203125 62.359375 50.875 
Q 62.359375 41.75 56.546875 35.421875 
Q 50.734375 29.109375 35.546875 29.109375 
L 17.1875 29.109375 
L 17.1875 0 
z
M 17.1875 37.546875 
L 35.6875 37.546875 
Q 44.875 37.546875 48.734375 40.96875 
Q 52.59375 44.390625 52.59375 50.59375 
Q 52.59375 55.078125 50.3125 58.265625 
Q 48.046875 61.46875 44.34375 62.5 
Q 41.9375 63.140625 35.5 63.140625 
L 17.1875 63.140625 
z
" id="ArialMT-80"/>
      <path d="M 6.5 0 
L 6.5 51.859375 
L 14.40625 51.859375 
L 14.40625 44 
Q 17.4375 49.515625 20 51.265625 
Q 22.5625 53.03125 25.640625 53.03125 
Q 30.078125 53.03125 34.671875 50.203125 
L 31.640625 42.046875 
Q 28.421875 43.953125 25.203125 43.953125 
Q 22.3125 43.953125 20.015625 42.21875 
Q 17.71875 40.484375 16.75 37.40625 
Q 15.28125 32.71875 15.28125 27.15625 
L 15.28125 0 
z
" id="ArialMT-114"/>
      <path d="M 42.09375 16.703125 
L 51.171875 15.578125 
Q 49.03125 7.625 43.21875 3.21875 
Q 37.40625 -1.171875 28.375 -1.171875 
Q 17 -1.171875 10.328125 5.828125 
Q 3.65625 12.84375 3.65625 25.484375 
Q 3.65625 38.578125 10.390625 45.796875 
Q 17.140625 53.03125 27.875 53.03125 
Q 38.28125 53.03125 44.875 45.953125 
Q 51.46875 38.875 51.46875 26.03125 
Q 51.46875 25.25 51.421875 23.6875 
L 12.75 23.6875 
Q 13.234375 15.140625 17.578125 10.59375 
Q 21.921875 6.0625 28.421875 6.0625 
Q 33.25 6.0625 36.671875 8.59375 
Q 40.09375 11.140625 42.09375 16.703125 
z
M 13.234375 30.90625 
L 42.1875 30.90625 
Q 41.609375 37.453125 38.875 40.71875 
Q 34.671875 45.796875 27.984375 45.796875 
Q 21.921875 45.796875 17.796875 41.75 
Q 13.671875 37.703125 13.234375 30.90625 
z
" id="ArialMT-101"/>
      <path d="M 40.234375 0 
L 40.234375 6.546875 
Q 35.296875 -1.171875 25.734375 -1.171875 
Q 19.53125 -1.171875 14.328125 2.25 
Q 9.125 5.671875 6.265625 11.796875 
Q 3.421875 17.921875 3.421875 25.875 
Q 3.421875 33.640625 6 39.96875 
Q 8.59375 46.296875 13.765625 49.65625 
Q 18.953125 53.03125 25.34375 53.03125 
Q 30.03125 53.03125 33.6875 51.046875 
Q 37.359375 49.078125 39.65625 45.90625 
L 39.65625 71.578125 
L 48.390625 71.578125 
L 48.390625 0 
z
M 12.453125 25.875 
Q 12.453125 15.921875 16.640625 10.984375 
Q 20.84375 6.0625 26.5625 6.0625 
Q 32.328125 6.0625 36.34375 10.765625 
Q 40.375 15.484375 40.375 25.140625 
Q 40.375 35.796875 36.265625 40.765625 
Q 32.171875 45.75 26.171875 45.75 
Q 20.3125 45.75 16.375 40.96875 
Q 12.453125 36.1875 12.453125 25.875 
z
" id="ArialMT-100"/>
      <path d="M 6.640625 61.46875 
L 6.640625 71.578125 
L 15.4375 71.578125 
L 15.4375 61.46875 
z
M 6.640625 0 
L 6.640625 51.859375 
L 15.4375 51.859375 
L 15.4375 0 
z
" id="ArialMT-105"/>
      <path d="M 40.4375 19 
L 49.078125 17.875 
Q 47.65625 8.9375 41.8125 3.875 
Q 35.984375 -1.171875 27.484375 -1.171875 
Q 16.84375 -1.171875 10.375 5.78125 
Q 3.90625 12.75 3.90625 25.734375 
Q 3.90625 34.125 6.6875 40.421875 
Q 9.46875 46.734375 15.15625 49.875 
Q 20.84375 53.03125 27.546875 53.03125 
Q 35.984375 53.03125 41.359375 48.75 
Q 46.734375 44.484375 48.25 36.625 
L 39.703125 35.296875 
Q 38.484375 40.53125 35.375 43.15625 
Q 32.28125 45.796875 27.875 45.796875 
Q 21.234375 45.796875 17.078125 41.03125 
Q 12.9375 36.28125 12.9375 25.984375 
Q 12.9375 15.53125 16.9375 10.796875 
Q 20.953125 6.0625 27.390625 6.0625 
Q 32.5625 6.0625 36.03125 9.234375 
Q 39.5 12.40625 40.4375 19 
z
" id="ArialMT-99"/>
      <path d="M 25.78125 7.859375 
L 27.046875 0.09375 
Q 23.34375 -0.6875 20.40625 -0.6875 
Q 15.625 -0.6875 12.984375 0.828125 
Q 10.359375 2.34375 9.28125 4.8125 
Q 8.203125 7.28125 8.203125 15.1875 
L 8.203125 45.015625 
L 1.765625 45.015625 
L 1.765625 51.859375 
L 8.203125 51.859375 
L 8.203125 64.703125 
L 16.9375 69.96875 
L 16.9375 51.859375 
L 25.78125 51.859375 
L 25.78125 45.015625 
L 16.9375 45.015625 
L 16.9375 14.703125 
Q 16.9375 10.9375 17.40625 9.859375 
Q 17.875 8.796875 18.921875 8.15625 
Q 19.96875 7.515625 21.921875 7.515625 
Q 23.390625 7.515625 25.78125 7.859375 
z
" id="ArialMT-116"/>
      <path id="ArialMT-32"/>
      <path d="M 21 0 
L 1.265625 51.859375 
L 10.546875 51.859375 
L 21.6875 20.796875 
Q 23.484375 15.765625 25 10.359375 
Q 26.171875 14.453125 28.265625 20.21875 
L 39.796875 51.859375 
L 48.828125 51.859375 
L 29.203125 0 
z
" id="ArialMT-118"/>
      <path d="M 3.078125 15.484375 
L 11.765625 16.84375 
Q 12.5 11.625 15.84375 8.84375 
Q 19.1875 6.0625 25.203125 6.0625 
Q 31.25 6.0625 34.171875 8.515625 
Q 37.109375 10.984375 37.109375 14.3125 
Q 37.109375 17.28125 34.515625 19 
Q 32.71875 20.171875 25.53125 21.96875 
Q 15.875 24.421875 12.140625 26.203125 
Q 8.40625 27.984375 6.46875 31.125 
Q 4.546875 34.28125 4.546875 38.09375 
Q 4.546875 41.546875 6.125 44.5 
Q 7.71875 47.46875 10.453125 49.421875 
Q 12.5 50.921875 16.03125 51.96875 
Q 19.578125 53.03125 23.640625 53.03125 
Q 29.734375 53.03125 34.34375 51.265625 
Q 38.96875 49.515625 41.15625 46.5 
Q 43.359375 43.5 44.1875 38.484375 
L 35.59375 37.3125 
Q 35.015625 41.3125 32.203125 43.546875 
Q 29.390625 45.796875 24.265625 45.796875 
Q 18.21875 45.796875 15.625 43.796875 
Q 13.03125 41.796875 13.03125 39.109375 
Q 13.03125 37.40625 14.109375 36.03125 
Q 15.1875 34.625 17.484375 33.6875 
Q 18.796875 33.203125 25.25 31.453125 
Q 34.578125 28.953125 38.25 27.359375 
Q 41.9375 25.78125 44.03125 22.75 
Q 46.140625 19.734375 46.140625 15.234375 
Q 46.140625 10.84375 43.578125 6.953125 
Q 41.015625 3.078125 36.171875 0.953125 
Q 31.34375 -1.171875 25.25 -1.171875 
Q 15.140625 -1.171875 9.84375 3.03125 
Q 4.546875 7.234375 3.078125 15.484375 
z
" id="ArialMT-115"/>
      <path d="M 40.578125 0 
L 40.578125 7.625 
Q 34.515625 -1.171875 24.125 -1.171875 
Q 19.53125 -1.171875 15.546875 0.578125 
Q 11.578125 2.34375 9.640625 5 
Q 7.71875 7.671875 6.9375 11.53125 
Q 6.390625 14.109375 6.390625 19.734375 
L 6.390625 51.859375 
L 15.1875 51.859375 
L 15.1875 23.09375 
Q 15.1875 16.21875 15.71875 13.8125 
Q 16.546875 10.359375 19.234375 8.375 
Q 21.921875 6.390625 25.875 6.390625 
Q 29.828125 6.390625 33.296875 8.421875 
Q 36.765625 10.453125 38.203125 13.9375 
Q 39.65625 17.4375 39.65625 24.078125 
L 39.65625 51.859375 
L 48.4375 51.859375 
L 48.4375 0 
z
" id="ArialMT-117"/>
      <path d="M -0.140625 0 
L 27.34375 71.578125 
L 37.546875 71.578125 
L 66.84375 0 
L 56.0625 0 
L 47.703125 21.6875 
L 17.78125 21.6875 
L 9.90625 0 
z
M 20.515625 29.390625 
L 44.78125 29.390625 
L 37.3125 49.21875 
Q 33.890625 58.25 32.234375 64.0625 
Q 30.859375 57.171875 28.375 50.390625 
z
" id="ArialMT-65"/>
      <path d="M 6.390625 0 
L 6.390625 71.578125 
L 15.1875 71.578125 
L 15.1875 0 
z
" id="ArialMT-108"/>
      <path d="M 6.59375 0 
L 6.59375 51.859375 
L 14.5 51.859375 
L 14.5 44.484375 
Q 20.21875 53.03125 31 53.03125 
Q 35.6875 53.03125 39.625 51.34375 
Q 43.5625 49.65625 45.515625 46.921875 
Q 47.46875 44.1875 48.25 40.4375 
Q 48.734375 37.984375 48.734375 31.890625 
L 48.734375 0 
L 39.9375 0 
L 39.9375 31.546875 
Q 39.9375 36.921875 38.90625 39.578125 
Q 37.890625 42.234375 35.28125 43.8125 
Q 32.671875 45.40625 29.15625 45.40625 
Q 23.53125 45.40625 19.453125 41.84375 
Q 15.375 38.28125 15.375 28.328125 
L 15.375 0 
z
" id="ArialMT-110"/>
     </defs>
     <use xlink:href="#ArialMT-80"/>
     <use x="66.699219" xlink:href="#ArialMT-114"/>
     <use x="100" xlink:href="#ArialMT-101"/>
     <use x="155.615234" xlink:href="#ArialMT-100"/>
     <use x="211.230469" xlink:href="#ArialMT-105"/>
     <use x="233.447266" xlink:href="#ArialMT-99"/>
     <use x="283.447266" xlink:href="#ArialMT-116"/>
     <use x="311.230469" xlink:href="#ArialMT-101"/>
     <use x="366.845703" xlink:href="#ArialMT-100"/>
     <use x="422.460938" xlink:href="#ArialMT-32"/>
     <use x="450.244141" xlink:href="#ArialMT-118"/>
     <use x="500.244141" xlink:href="#ArialMT-101"/>
     <use x="555.859375" xlink:href="#ArialMT-114"/>
     <use x="589.160156" xlink:href="#ArialMT-115"/>
     <use x="639.160156" xlink:href="#ArialMT-117"/>
     <use x="694.775391" xlink:href="#ArialMT-115"/>
     <use x="744.775391" xlink:href="#ArialMT-32"/>
     <use x="767.058594" xlink:href="#ArialMT-65"/>
     <use x="833.757812" xlink:href="#ArialMT-99"/>
     <use x="883.757812" xlink:href="#ArialMT-116"/>
     <use x="911.541016" xlink:href="#ArialMT-117"/>
     <use x="967.15625" xlink:href="#ArialMT-108"/>
     <use x="989.373047" xlink:href="#ArialMT-32"/>
     <use x="1017.15625" xlink:href="#ArialMT-114"/>
     <use x="1050.457031" xlink:href="#ArialMT-101"/>
     <use x="1106.072266" xlink:href="#ArialMT-118"/>
     <use x="1156.072266" xlink:href="#ArialMT-101"/>
     <use x="1211.6875" xlink:href="#ArialMT-110"/>
     <use x="1267.302734" xlink:href="#ArialMT-117"/>
     <use x="1322.917969" xlink:href="#ArialMT-101"/>
    </g>
   </g>
  </g>
 </g>
 <defs>
  <clipPath id="p44e08d1373">
   <rect height="221.4" width="355.15" x="66.05" y="24.8"/>
  </clipPath>
 </defs>
</svg>
